#N canvas 964 221 1033 724 10;
#N canvas 1051 380 837 506 oledplot 0;
#X obj 122 49 inlet;
#X text 81 20 update graph;
#X obj 199 105 bng 15 250 50 0 empty empty empty 17 7 0 10 -262144
-1 -1;
#X obj 203 203 until;
#X obj 203 225 f;
#X obj 203 247 t f f;
#X obj 254 225 - 1;
#X obj 203 454 tabwrite oled;
#X obj 203 398 i;
#N canvas 229 135 969 510 sendfxvals 0;
#X obj 42 17 inlet;
#X obj 595 95 r rand;
#X obj 32 220 r stut;
#X obj 221 267 r fx1;
#X obj 572 262 r fx4;
#X obj 450 261 r fx3;
#X obj 334 255 r fx2;
#X obj 272 90 r hpb;
#X obj 272 136 i;
#X floatatom 272 158 5 0 0 0 - - -, f 5;
#X obj 272 114 expr 31*$f1;
#X obj 442 92 r offset;
#X obj 442 139 i;
#X floatatom 442 161 5 0 0 0 - - -, f 5;
#X obj 442 117 expr 31*$f1;
#X obj 595 144 i;
#X floatatom 595 166 5 0 0 0 - - -, f 5;
#X obj 595 122 expr 32*$f1;
#X obj 32 266 i;
#X floatatom 32 288 5 0 0 0 - - -, f 5;
#X obj 32 244 expr 2.21*$f1-4;
#X obj 74 92 r bpow;
#X obj 74 138 i;
#X floatatom 74 160 5 0 0 0 - - -, f 5;
#X obj 74 116 expr 5.17*($f1-2);
#X obj 74 187 tabwrite oled;
#X msg 123 137 100;
#X obj 272 188 tabwrite oled;
#X obj 442 182 tabwrite oled;
#X obj 596 188 tabwrite oled;
#X obj 44 325 tabwrite oled;
#X obj 222 312 tabwrite oled;
#X obj 335 311 tabwrite oled;
#X obj 450 315 tabwrite oled;
#X obj 572 316 tabwrite oled;
#X msg 324 136 101;
#X msg 474 140 102, f 11;
#X msg 647 143 103;
#X msg 112 268 104;
#X msg 282 267 105;
#X msg 399 260 106;
#X msg 516 259 107;
#X msg 630 262 108;
#X obj 14 22 bng 15 250 50 0 empty empty empty 17 7 0 10 -262144 -1
-1;
#X floatatom 572 284 5 0 0 0 - - -, f 5;
#X floatatom 450 283 5 0 0 0 - - -, f 5;
#X floatatom 334 277 5 0 0 0 - - -, f 5;
#X floatatom 221 289 5 0 0 0 - - -, f 5;
#X obj 688 317 tabwrite oled;
#X floatatom 688 285 5 0 0 0 - - -, f 5;
#X msg 687 264 1;
#X msg 746 263 109;
#X obj 42 39 t b b b b b b b b b b;
#X text 692 339 line=1 point=0;
#X connect 0 0 52 0;
#X connect 1 0 17 0;
#X connect 2 0 20 0;
#X connect 3 0 47 0;
#X connect 4 0 44 0;
#X connect 5 0 45 0;
#X connect 6 0 46 0;
#X connect 7 0 10 0;
#X connect 8 0 9 0;
#X connect 9 0 27 0;
#X connect 10 0 8 0;
#X connect 11 0 14 0;
#X connect 12 0 13 0;
#X connect 13 0 28 0;
#X connect 14 0 12 0;
#X connect 15 0 16 0;
#X connect 16 0 29 0;
#X connect 17 0 15 0;
#X connect 18 0 19 0;
#X connect 19 0 30 0;
#X connect 20 0 18 0;
#X connect 21 0 24 0;
#X connect 22 0 23 0;
#X connect 23 0 25 0;
#X connect 24 0 22 0;
#X connect 26 0 25 1;
#X connect 35 0 27 1;
#X connect 36 0 28 1;
#X connect 37 0 29 1;
#X connect 38 0 30 1;
#X connect 39 0 31 1;
#X connect 40 0 32 1;
#X connect 41 0 33 1;
#X connect 42 0 34 1;
#X connect 43 0 52 0;
#X connect 44 0 34 0;
#X connect 45 0 33 0;
#X connect 46 0 32 0;
#X connect 47 0 31 0;
#X connect 49 0 48 0;
#X connect 50 0 49 0;
#X connect 51 0 48 1;
#X connect 52 0 42 0;
#X connect 52 1 41 0;
#X connect 52 2 40 0;
#X connect 52 3 39 0;
#X connect 52 4 38 0;
#X connect 52 5 37 0;
#X connect 52 6 36 0;
#X connect 52 7 35 0;
#X connect 52 8 26 0;
#X connect 52 9 51 0;
#X restore 564 272 pd sendfxvals;
#X obj 198 126 t b b b b;
#X obj 567 329 array get oled;
#X obj 314 255 t f f;
#X obj 314 462 tabwrite oled;
#X obj 314 406 i;
#X obj 314 233 + 50;
#X obj 203 291 tabread arrayL;
#X obj 314 299 tabread arrayR;
#X msg 203 181 50;
#X msg 263 177 49;
#X obj 592 399 print OLED X;
#X obj 203 336 * 32;
#X obj 203 358 + 0;
#X obj 314 366 + 0;
#X obj 203 378 expr 16-$f1;
#X obj 314 386 expr 48-$f1;
#X obj 203 269 * 15;
#X obj 314 277 * 15;
#X obj 314 344 * 32;
#X connect 0 0 2 0;
#X connect 2 0 10 0;
#X connect 3 0 4 0;
#X connect 4 0 5 0;
#X connect 4 0 6 0;
#X connect 4 0 15 0;
#X connect 5 0 26 0;
#X connect 5 1 7 1;
#X connect 6 0 4 1;
#X connect 8 0 7 0;
#X connect 10 0 11 0;
#X connect 10 1 18 0;
#X connect 10 2 19 0;
#X connect 10 3 9 0;
#X connect 11 0 20 0;
#X connect 12 0 27 0;
#X connect 12 1 13 1;
#X connect 14 0 13 0;
#X connect 15 0 12 0;
#X connect 16 0 21 0;
#X connect 17 0 28 0;
#X connect 18 0 3 0;
#X connect 19 0 4 1;
#X connect 21 0 22 0;
#X connect 22 0 24 0;
#X connect 23 0 25 0;
#X connect 24 0 8 0;
#X connect 25 0 14 0;
#X connect 26 0 16 0;
#X connect 27 0 17 0;
#X connect 28 0 23 0;
#X restore 84 529 pd oledplot;
#X obj 249 410 bng 15 250 50 0 empty empty empty 17 7 0 10 -262144
-1 -1;
#X obj 145 221 inlet~;
#X obj 78 31 tgl 15 1 empty empty empty 17 7 0 10 -262144 -1 -1 1 1
;
#X obj 200 375 bng 15 250 50 0 empty empty empty 17 7 0 10 -262144
-1 -1;
#X obj 210 316 spigot;
#X obj 203 274 threshold~ 0.01 10 0.1 100;
#X obj 524 411 bng 15 250 50 0 empty empty empty 17 7 0 10 -262144
-1 -1;
#X obj 420 222 inlet~;
#X obj 526 372 inlet;
#X obj 475 376 bng 15 250 50 0 empty empty empty 17 7 0 10 -262144
-1 -1;
#X obj 485 317 spigot;
#X obj 478 275 threshold~ 0.01 10 0.1 100;
#X obj 184 491 tabwrite~ arrayL;
#X obj 459 492 tabwrite~ arrayR;
#X connect 1 0 0 0;
#X connect 1 0 13 0;
#X connect 2 0 6 0;
#X connect 2 0 13 0;
#X connect 3 0 5 1;
#X connect 3 0 11 1;
#X connect 4 0 0 0;
#X connect 4 0 13 0;
#X connect 5 0 4 0;
#X connect 6 0 5 0;
#X connect 7 0 14 0;
#X connect 8 0 12 0;
#X connect 8 0 14 0;
#X connect 9 0 7 0;
#X connect 9 0 1 0;
#X connect 10 0 14 0;
#X connect 11 0 10 0;
#X connect 12 0 11 0;
#X coords 0 -1 1 1 85 40 1 10 10;
