#N canvas 245 120 1121 794 10;
#N canvas 150 358 837 506 oledplot 0;
#X obj 122 49 inlet;
#X text 81 20 update graph;
#X obj 199 105 bng 15 250 50 0 empty empty empty 17 7 0 10 -262144
-1 -1;
#X obj 203 203 until;
#X obj 203 225 f;
#X obj 203 247 t f f;
#X obj 254 225 - 1;
#X obj 203 454 tabwrite oled;
#X obj 203 398 i;
#X msg 262 177 99;
#X msg 203 181 100;
#N canvas 229 135 969 510 sendfxvals 0;
#X obj 42 17 inlet;
#X obj 595 95 r rand;
#X obj 32 220 r stut;
#X obj 221 267 r fx1;
#X obj 572 262 r fx4;
#X obj 450 261 r fx3;
#X obj 334 255 r fx2;
#X obj 272 90 r hpb;
#X obj 272 136 i;
#X floatatom 272 158 5 0 0 0 - - -, f 5;
#X obj 272 114 expr 31*$f1;
#X obj 442 92 r offset;
#X obj 442 139 i;
#X floatatom 442 161 5 0 0 0 - - -, f 5;
#X obj 442 117 expr 31*$f1;
#X obj 595 144 i;
#X floatatom 595 166 5 0 0 0 - - -, f 5;
#X obj 595 122 expr 32*$f1;
#X obj 32 266 i;
#X floatatom 32 288 5 0 0 0 - - -, f 5;
#X obj 32 244 expr 2.21*$f1-4;
#X obj 74 92 r bpow;
#X obj 74 138 i;
#X floatatom 74 160 5 0 0 0 - - -, f 5;
#X obj 74 116 expr 5.17*($f1-2);
#X msg 123 137 100;
#X msg 324 136 101;
#X msg 474 140 102, f 11;
#X msg 647 143 103;
#X msg 112 268 104;
#X msg 282 267 105;
#X msg 399 260 106;
#X msg 516 259 107;
#X msg 630 262 108;
#X obj 14 22 bng 15 250 50 0 empty empty empty 17 7 0 10 -262144 -1
-1;
#X floatatom 572 284 5 0 0 0 - - -, f 5;
#X floatatom 450 283 5 0 0 0 - - -, f 5;
#X floatatom 334 277 5 0 0 0 - - -, f 5;
#X floatatom 221 289 5 0 0 0 - - -, f 5;
#X floatatom 688 285 5 0 0 0 - - -, f 5;
#X msg 687 264 1;
#X msg 746 263 109;
#X obj 42 39 t b b b b b b b b b b;
#X text 692 339 line=1 point=0;
#X obj 74 187 tabwrite levels;
#X obj 272 188 tabwrite levels;
#X obj 442 182 tabwrite levels;
#X obj 596 188 tabwrite levels;
#X obj 688 317 tabwrite levels;
#X obj 572 316 tabwrite levels;
#X obj 450 315 tabwrite levels;
#X obj 335 311 tabwrite levels;
#X obj 222 312 tabwrite levels;
#X obj 44 325 tabwrite levels;
#X connect 0 0 42 0;
#X connect 1 0 17 0;
#X connect 2 0 20 0;
#X connect 3 0 38 0;
#X connect 4 0 35 0;
#X connect 5 0 36 0;
#X connect 6 0 37 0;
#X connect 7 0 10 0;
#X connect 8 0 9 0;
#X connect 9 0 45 0;
#X connect 10 0 8 0;
#X connect 11 0 14 0;
#X connect 12 0 13 0;
#X connect 13 0 46 0;
#X connect 14 0 12 0;
#X connect 15 0 16 0;
#X connect 16 0 47 0;
#X connect 17 0 15 0;
#X connect 18 0 19 0;
#X connect 19 0 53 0;
#X connect 20 0 18 0;
#X connect 21 0 24 0;
#X connect 22 0 23 0;
#X connect 23 0 44 0;
#X connect 24 0 22 0;
#X connect 25 0 44 1;
#X connect 26 0 45 1;
#X connect 27 0 46 1;
#X connect 28 0 47 1;
#X connect 29 0 53 1;
#X connect 30 0 52 1;
#X connect 31 0 51 1;
#X connect 32 0 50 1;
#X connect 33 0 49 1;
#X connect 34 0 42 0;
#X connect 35 0 49 0;
#X connect 36 0 50 0;
#X connect 37 0 51 0;
#X connect 38 0 52 0;
#X connect 39 0 48 0;
#X connect 40 0 39 0;
#X connect 41 0 48 1;
#X connect 42 0 33 0;
#X connect 42 1 32 0;
#X connect 42 2 31 0;
#X connect 42 3 30 0;
#X connect 42 4 29 0;
#X connect 42 5 28 0;
#X connect 42 6 27 0;
#X connect 42 7 26 0;
#X connect 42 8 25 0;
#X connect 42 9 41 0;
#X restore 395 232 pd sendfxvals;
#X obj 198 126 t b b b b;
#X obj 203 378 expr 31-$f1;
#X obj 398 289 array get oled;
#X obj 423 359 print print: X;
#X obj 203 291 tabread array1;
#X obj 203 269 * 10;
#X obj 203 336 * 16;
#X obj 203 358 + 16;
#X connect 0 0 2 0;
#X connect 2 0 12 0;
#X connect 3 0 4 0;
#X connect 4 0 5 0;
#X connect 4 0 6 0;
#X connect 5 0 17 0;
#X connect 5 1 7 1;
#X connect 6 0 4 1;
#X connect 8 0 7 0;
#X connect 9 0 4 1;
#X connect 10 0 3 0;
#X connect 12 0 14 0;
#X connect 12 1 10 0;
#X connect 12 2 9 0;
#X connect 12 3 11 0;
#X connect 13 0 8 0;
#X connect 14 0 15 0;
#X connect 16 0 18 0;
#X connect 17 0 16 0;
#X connect 18 0 19 0;
#X connect 19 0 13 0;
#X restore 978 224 pd oledplot;
#X obj 75 318 inlet~;
#X obj 78 31 tgl 15 1 empty empty empty 17 7 0 10 -262144 -1 -1 0 1
;
#X obj 77 417 vu 15 120 empty empty -1 -8 0 10 -66577 -1 1 0;
#X obj 76 389 - 100;
#X obj 478 196 bng 15 250 50 0 empty empty empty 17 7 0 10 -262144
-1 -1;
#X obj 425 323 inlet~;
#X obj 426 389 - 100;
#X obj 427 417 vu 15 120 empty empty -1 -8 0 10 -66577 -1 1 0;
#X obj 76 363 env~ 512;
#X obj 148 363 dbtorms;
#X obj 426 363 env~ 512;
#X obj 515 398 dbtorms;
#X obj 478 169 loadbang;
#X obj 148 412 s lmon;
#X obj 515 447 s rmon;
#N canvas 352 268 969 585 sendfxvals 0;
#X obj 42 17 inlet;
#X obj 14 22 bng 15 250 50 0 empty empty empty 17 7 0 10 -262144 -1
-1;
#X obj 47 36 t b b b b b b b b b b;
#X obj 289 106 r ttk3;
#X obj 222 288 r ttk6;
#X msg 120 144 3;
#X msg 237 180 4;
#X msg 377 102 5, f 11;
#X msg 529 102 6;
#X msg 112 268 7;
#X msg 282 267 8;
#X obj 30 122 r l1;
#X obj 148 179 r l2;
#X obj 477 66 r r1;
#X obj 42 284 r r2;
#X obj 409 290 r lmon;
#X obj 495 298 r rmon;
#X msg 459 274 1;
#X msg 561 279 2;
#X obj 143 436 bng 15 250 50 0 empty empty empty 17 7 0 10 -262144
-1 -1;
#X obj 174 464 array get oled;
#X obj 200 403 tgl 15 1 empty empty empty 17 7 0 10 -262144 -1 -1 0
1;
#X obj 174 432 spigot;
#X obj 409 312 * 1000;
#X obj 409 334 i;
#X obj 509 327 * 1000;
#X obj 509 349 i;
#X obj 360 19 inlet;
#X obj 592 15 inlet;
#X msg 648 99 0;
#X msg 677 321 9;
#X obj 626 285 r BPM;
#X obj 191 494 print OLED E;
#X obj 29 196 tabwrite levels;
#X obj 149 252 tabwrite levels;
#X obj 291 184 tabwrite levels;
#X obj 481 146 tabwrite levels;
#X obj 600 143 tabwrite levels;
#X obj 629 365 tabwrite levels;
#X obj 507 374 tabwrite levels;
#X obj 405 368 tabwrite levels;
#X obj 228 362 tabwrite levels;
#X obj 46 355 tabwrite levels;
#X connect 0 0 2 0;
#X connect 1 0 2 0;
#X connect 2 0 22 0;
#X connect 2 1 18 0;
#X connect 2 2 17 0;
#X connect 2 3 10 0;
#X connect 2 4 9 0;
#X connect 2 5 8 0;
#X connect 2 5 30 0;
#X connect 2 6 7 0;
#X connect 2 7 6 0;
#X connect 2 8 5 0;
#X connect 2 9 29 0;
#X connect 3 0 35 0;
#X connect 4 0 41 0;
#X connect 5 0 33 1;
#X connect 6 0 34 1;
#X connect 7 0 35 1;
#X connect 8 0 36 1;
#X connect 9 0 42 1;
#X connect 10 0 41 1;
#X connect 11 0 33 0;
#X connect 12 0 34 0;
#X connect 13 0 36 0;
#X connect 14 0 42 0;
#X connect 15 0 23 0;
#X connect 16 0 25 0;
#X connect 17 0 40 1;
#X connect 18 0 39 1;
#X connect 19 0 20 0;
#X connect 20 0 32 0;
#X connect 21 0 22 1;
#X connect 22 0 20 0;
#X connect 23 0 24 0;
#X connect 24 0 40 0;
#X connect 25 0 26 0;
#X connect 26 0 39 0;
#X connect 27 0 21 0;
#X connect 28 0 37 0;
#X connect 29 0 37 1;
#X connect 30 0 38 1;
#X connect 31 0 38 0;
#X restore 976 264 pd sendfxvals;
#X text 65 13 plot;
#X obj 644 383 - 100;
#X obj 645 411 vu 15 120 empty empty -1 -8 0 10 -66577 -1 1 0;
#X obj 644 357 env~ 512;
#X obj 733 392 dbtorms;
#X obj 872 388 - 100;
#X obj 873 416 vu 15 120 empty empty -1 -8 0 10 -66577 -1 1 0;
#X obj 872 362 env~ 512;
#X obj 961 397 dbtorms;
#X obj 733 441 s adcLmon;
#X obj 961 446 s adcRmon;
#X obj 148 385 f;
#X obj 515 423 f;
#X obj 732 415 f;
#X obj 961 421 f;
#X obj 478 220 metro 50;
#X connect 1 0 9 0;
#X connect 2 0 32 0;
#X connect 4 0 3 0;
#X connect 5 0 32 0;
#X connect 6 0 11 0;
#X connect 7 0 8 0;
#X connect 9 0 4 0;
#X connect 9 0 10 0;
#X connect 10 0 28 1;
#X connect 11 0 7 0;
#X connect 11 0 12 0;
#X connect 12 0 29 1;
#X connect 18 0 19 0;
#X connect 20 0 18 0;
#X connect 20 0 21 0;
#X connect 21 0 30 1;
#X connect 22 0 23 0;
#X connect 24 0 22 0;
#X connect 24 0 25 0;
#X connect 25 0 31 1;
#X connect 28 0 14 0;
#X connect 29 0 15 0;
#X connect 30 0 26 0;
#X connect 31 0 27 0;
#X connect 32 0 28 0;
#X connect 32 0 29 0;
#X connect 32 0 30 0;
#X connect 32 0 31 0;
#X coords 0 -1 1 1 85 40 1 10 10;
