#N canvas 639 50 1242 813 10;
#X obj 146 62 tt-knbs~;
#X obj 462 -80 loadbang;
#X obj 534 75 noise~;
#X obj 534 97 *~ 0.05;
#X obj 437 192 *~ 1;
#X obj 503 46 vsl 15 128 0.2 10 0 0 empty empty empty 0 -9 0 10 -262144
-1 -1 0 1;
#X floatatom 317 58 5 0 0 0 - - -, f 5;
#X obj 612 57 vsl 15 128 0 1 0 0 empty empty empty 0 -9 0 10 -262144
-1 -1 0 1;
#X floatatom 447 59 5 0 0 0 - - -, f 5;
#X msg 508 256 knb1 knb2 knb3 knb4 knb5 knb6;
#X obj 727 -8 bng 15 250 50 0 empty empty empty 17 7 0 10 -262144 -1
-1;
#X msg 378 19 \; pd dsp 1;
#X obj 663 350 print scope;
#X obj 727 38 delay 2000;
#X obj 611 26 r ttk1;
#X obj 258 -48 r ttk2;
#X floatatom 247 9 5 0 0 0 - - -, f 5;
#X obj 247 -13 expr $f1*840+100;
#X obj 359 -32 expr $f1*800+100;
#X obj 371 -65 r ttk3;
#X obj 383 292 dac~;
#X obj 289 108 osc~;
#X floatatom 503 182 5 0 0 0 - - -, f 5;
#X obj 420 126 -~ 0.5;
#X obj 365 180 *~ 0.5;
#X obj 379 149 * 0.5;
#X obj 337 139 -~;
#X obj 362 399 tt-screens~;
#X floatatom 502 13 5 0 0 0 - - -, f 5;
#X obj 513 -44 r ttk6;
#X obj 502 -9 expr 1+9*$f1;
#X obj 822 227 tt-btns~;
#X obj 336 104 phasor~ 160;
#X obj 420 104 phasor~ 211;
#X msg 420 82 211;
#X msg 336 82 160;
#X connect 1 0 35 0;
#X connect 1 0 34 0;
#X connect 1 0 11 0;
#X connect 1 0 10 0;
#X connect 2 0 3 0;
#X connect 3 0 23 0;
#X connect 3 0 26 1;
#X connect 4 0 20 0;
#X connect 4 0 27 2;
#X connect 5 0 4 1;
#X connect 5 0 22 0;
#X connect 5 0 24 1;
#X connect 5 0 25 0;
#X connect 6 0 21 0;
#X connect 6 0 32 0;
#X connect 7 0 3 1;
#X connect 8 0 33 0;
#X connect 9 0 27 0;
#X connect 10 0 13 0;
#X connect 13 0 9 0;
#X connect 14 0 7 0;
#X connect 15 0 17 0;
#X connect 16 0 21 0;
#X connect 17 0 16 0;
#X connect 18 0 33 0;
#X connect 19 0 18 0;
#X connect 21 0 26 0;
#X connect 23 0 4 0;
#X connect 24 0 20 1;
#X connect 24 0 27 1;
#X connect 25 0 24 1;
#X connect 26 0 24 0;
#X connect 28 0 5 0;
#X connect 29 0 30 0;
#X connect 30 0 28 0;
#X connect 33 0 23 0;
#X connect 34 0 33 0;
#X connect 35 0 21 0;
#X connect 35 0 32 0;
