#N canvas 0 50 1024 728 10;
#X obj 277 204 timer;
#X obj 274 75 f;
#X obj 305 75 + 1;
#X obj 318 134 sel 3;
#X msg 317 44 0;
#X obj 265 134 moses 1;
#X obj 265 170 bang;
#X obj 304 177 bang;
#X obj 271 248 f;
#X obj 304 249 +;
#X obj 277 226 t b f;
#X obj 338 225 == 3;
#X obj 272 294 spigot;
#X obj 271 273 /;
#X obj 274 96 t f f f;
#X obj 273 28 bng 15 250 50 0 empty empty empty 17 7 0 10 -262144 -1
-1;
#X floatatom 282 353 5 0 0 0 - - -, f 5;
#X obj 229 21 inlet;
#X obj 310 453 outlet;
#X floatatom 306 410 5 0 0 0 - - -, f 5;
#X obj 306 388 expr 60000/$f1;
#X text 368 453 BPM output;
#X connect 0 0 10 0;
#X connect 1 0 2 0;
#X connect 1 0 14 0;
#X connect 2 0 1 1;
#X connect 3 0 4 0;
#X connect 4 0 1 1;
#X connect 4 0 9 1;
#X connect 5 0 6 0;
#X connect 5 1 7 0;
#X connect 6 0 0 0;
#X connect 7 0 0 1;
#X connect 7 0 0 0;
#X connect 8 0 9 1;
#X connect 8 0 13 0;
#X connect 9 0 8 1;
#X connect 10 0 8 0;
#X connect 10 1 9 0;
#X connect 11 0 12 1;
#X connect 12 0 16 0;
#X connect 13 0 12 0;
#X connect 14 0 3 0;
#X connect 14 1 5 0;
#X connect 14 2 11 0;
#X connect 14 2 13 1;
#X connect 15 0 1 0;
#X connect 16 0 20 0;
#X connect 17 0 1 0;
#X connect 19 0 18 0;
#X connect 20 0 19 0;
