#N canvas 80 165 713 710 10;
#X obj 216 4 loadbang;
#X obj 220 54 delay 300;
#X msg 220 92 1;
#X msg 178 119 open;
#X obj 222 162 terminal_tedium_adc;
#X text 264 140 adc 0-5;
#N canvas 0 50 450 300 removenoise 0;
#X obj 99 26 inlet;
#X obj 288 94 f;
#X obj 99 173 i;
#X obj 99 199 change;
#X text 315 125 smooth and remove noise;
#X obj 99 228 outlet;
#X obj 99 53 t f b;
#X obj 99 123 expr ($f1*(($f2*-1)+1))+($f3*$f2);
#X obj 60 96 sel 0;
#X obj 60 144 0;
#X msg 202 88 0.3;
#X connect 0 0 6 0;
#X connect 1 0 7 2;
#X connect 2 0 3 0;
#X connect 3 0 5 0;
#X connect 6 0 8 0;
#X connect 6 1 10 0;
#X connect 7 0 1 0;
#X connect 7 0 2 0;
#X connect 8 0 9 0;
#X connect 8 1 7 0;
#X connect 9 0 1 0;
#X connect 9 0 10 0;
#X connect 9 0 7 0;
#X connect 10 0 7 1;
#X restore 222 193 pd removenoise;
#N canvas 0 50 450 300 removenoise 0;
#X obj 99 26 inlet;
#X obj 288 94 f;
#X obj 99 173 i;
#X obj 99 199 change;
#X text 315 125 smooth and remove noise;
#X obj 99 228 outlet;
#X obj 99 53 t f b;
#X obj 99 123 expr ($f1*(($f2*-1)+1))+($f3*$f2);
#X obj 60 96 sel 0;
#X obj 60 144 0;
#X msg 202 88 0.3;
#X connect 0 0 6 0;
#X connect 1 0 7 2;
#X connect 2 0 3 0;
#X connect 3 0 5 0;
#X connect 6 0 8 0;
#X connect 6 1 10 0;
#X connect 7 0 1 0;
#X connect 7 0 2 0;
#X connect 8 0 9 0;
#X connect 8 1 7 0;
#X connect 9 0 1 0;
#X connect 9 0 10 0;
#X connect 9 0 7 0;
#X connect 10 0 7 1;
#X restore 248 220 pd removenoise;
#N canvas 0 50 450 300 removenoise 0;
#X obj 99 26 inlet;
#X obj 288 94 f;
#X obj 99 173 i;
#X obj 99 199 change;
#X text 315 125 smooth and remove noise;
#X obj 99 228 outlet;
#X obj 99 53 t f b;
#X obj 99 123 expr ($f1*(($f2*-1)+1))+($f3*$f2);
#X obj 60 96 sel 0;
#X obj 60 144 0;
#X msg 202 88 0.3;
#X connect 0 0 6 0;
#X connect 1 0 7 2;
#X connect 2 0 3 0;
#X connect 3 0 5 0;
#X connect 6 0 8 0;
#X connect 6 1 10 0;
#X connect 7 0 1 0;
#X connect 7 0 2 0;
#X connect 8 0 9 0;
#X connect 8 1 7 0;
#X connect 9 0 1 0;
#X connect 9 0 10 0;
#X connect 9 0 7 0;
#X connect 10 0 7 1;
#X restore 274 242 pd removenoise;
#N canvas 0 50 450 300 removenoise 0;
#X obj 99 26 inlet;
#X obj 288 94 f;
#X obj 99 173 i;
#X obj 99 199 change;
#X text 315 125 smooth and remove noise;
#X obj 99 228 outlet;
#X obj 99 53 t f b;
#X obj 99 123 expr ($f1*(($f2*-1)+1))+($f3*$f2);
#X obj 60 96 sel 0;
#X obj 60 144 0;
#X msg 202 88 0.3;
#X connect 0 0 6 0;
#X connect 1 0 7 2;
#X connect 2 0 3 0;
#X connect 3 0 5 0;
#X connect 6 0 8 0;
#X connect 6 1 10 0;
#X connect 7 0 1 0;
#X connect 7 0 2 0;
#X connect 8 0 9 0;
#X connect 8 1 7 0;
#X connect 9 0 1 0;
#X connect 9 0 10 0;
#X connect 9 0 7 0;
#X connect 10 0 7 1;
#X restore 301 266 pd removenoise;
#N canvas 0 50 450 300 removenoise 0;
#X obj 99 26 inlet;
#X obj 288 94 f;
#X obj 99 173 i;
#X obj 99 199 change;
#X text 315 125 smooth and remove noise;
#X obj 99 228 outlet;
#X obj 99 53 t f b;
#X obj 99 123 expr ($f1*(($f2*-1)+1))+($f3*$f2);
#X obj 60 96 sel 0;
#X obj 60 144 0;
#X msg 202 88 0.3;
#X connect 0 0 6 0;
#X connect 1 0 7 2;
#X connect 2 0 3 0;
#X connect 3 0 5 0;
#X connect 6 0 8 0;
#X connect 6 1 10 0;
#X connect 7 0 1 0;
#X connect 7 0 2 0;
#X connect 8 0 9 0;
#X connect 8 1 7 0;
#X connect 9 0 1 0;
#X connect 9 0 10 0;
#X connect 9 0 7 0;
#X connect 10 0 7 1;
#X restore 324 290 pd removenoise;
#N canvas 0 50 450 300 removenoise 0;
#X obj 99 26 inlet;
#X obj 288 94 f;
#X obj 99 173 i;
#X obj 99 199 change;
#X text 315 125 smooth and remove noise;
#X obj 99 228 outlet;
#X obj 99 53 t f b;
#X obj 99 123 expr ($f1*(($f2*-1)+1))+($f3*$f2);
#X obj 60 96 sel 0;
#X obj 60 144 0;
#X msg 202 88 0.3;
#X connect 0 0 6 0;
#X connect 1 0 7 2;
#X connect 2 0 3 0;
#X connect 3 0 5 0;
#X connect 6 0 8 0;
#X connect 6 1 10 0;
#X connect 7 0 1 0;
#X connect 7 0 2 0;
#X connect 8 0 9 0;
#X connect 8 1 7 0;
#X connect 9 0 1 0;
#X connect 9 0 10 0;
#X connect 9 0 7 0;
#X connect 10 0 7 1;
#X restore 353 315 pd removenoise;
#X msg 314 113 deadband 2;
#X obj 221 120 metro 10;
#X msg 353 133 smooth 4;
#X obj 371 367 / 4001;
#X obj 324 335 / 4001;
#X obj 308 364 / 4001;
#X obj 249 399 / 4001;
#X obj 180 331 / 4001;
#X obj 272 298 / 4001;
#X obj 12 33 vsl 15 60 0 1 0 0 ttk1 empty empty 0 -9 0 10 -262144 -1
-1 1475 1;
#X obj 35 33 vsl 15 60 0 1 0 0 ttk2 empty empty 0 -9 0 10 -262144 -1
-1 2065 1;
#X obj 57 33 vsl 15 60 0 1 0 0 ttk3 empty empty 0 -9 0 10 -262144 -1
-1 4425 1;
#X obj 80 33 vsl 15 60 0 1 0 0 ttk4 empty empty 0 -9 0 10 -262144 -1
-1 737 1;
#X obj 101 33 vsl 15 60 0 1 0 0 ttk5 empty empty 0 -9 0 10 -262144
-1 -1 2950 1;
#X obj 123 33 vsl 15 60 0 1 0 0 ttk7 empty empty 0 -9 0 10 -262144
-1 -1 0 1;
#X obj 12 112 outlet;
#X obj 34 138 outlet;
#X obj 58 168 outlet;
#X obj 123 175 outlet;
#X obj 100 142 outlet;
#X obj 80 110 outlet;
#X msg 326 75 0.25;
#X msg 424 75 0.75;
#X msg 485 75 0.125;
#X obj 363 29 t b b b b b b;
#X msg 530 73 0.5;
#X msg 592 65 0, f 5;
#X msg 372 74 0.35;
#X obj 304 9 delay 900;
#X connect 0 0 1 0;
#X connect 0 0 40 0;
#X connect 0 0 36 0;
#X connect 1 0 3 0;
#X connect 1 0 2 0;
#X connect 2 0 13 0;
#X connect 3 0 4 0;
#X connect 4 0 6 0;
#X connect 4 1 7 0;
#X connect 4 2 8 0;
#X connect 4 3 9 0;
#X connect 4 4 10 0;
#X connect 4 5 11 0;
#X connect 6 0 19 0;
#X connect 7 0 18 0;
#X connect 8 0 20 0;
#X connect 9 0 17 0;
#X connect 10 0 16 0;
#X connect 11 0 15 0;
#X connect 12 0 4 0;
#X connect 13 0 4 0;
#X connect 14 0 4 0;
#X connect 15 0 26 0;
#X connect 16 0 25 0;
#X connect 17 0 24 0;
#X connect 18 0 22 0;
#X connect 19 0 21 0;
#X connect 20 0 23 0;
#X connect 21 0 27 0;
#X connect 22 0 28 0;
#X connect 23 0 29 0;
#X connect 24 0 32 0;
#X connect 25 0 31 0;
#X connect 26 0 30 0;
#X connect 33 0 21 0;
#X connect 34 0 23 0;
#X connect 35 0 24 0;
#X connect 36 0 33 0;
#X connect 36 1 39 0;
#X connect 36 2 34 0;
#X connect 36 3 35 0;
#X connect 36 4 37 0;
#X connect 36 5 38 0;
#X connect 37 0 25 0;
#X connect 38 0 26 0;
#X connect 39 0 22 0;
#X connect 40 0 36 0;
#X coords 0 -1 1 1 130 90 1 10 10;
