#N canvas 614 78 1188 784 12;
#X obj 215 349 multi-clock 1;
#X obj 525 1062 sound-out 1;
#X obj 31 392 presets ex2o;
#X obj 53 594 play-sample 1;
#X obj 53 567 sequencer 1;
#X text 34 1115 <1> Open preset 1 and click the 'start' toggle in 'multi-clock'.
;
#X text 29 1163 There is only 1 preset (with 4 patterns in 'multi-clock').
;
#X obj 35 756 long-delay 1;
#X obj 303 759 simple-delay 2;
#X obj 575 760 simple-delay 3;
#X obj 850 759 simple-delay 4;
#X obj 20 304 loadbang;
#X obj 23 359 t b f;
#X msg 20 329 1;
#X obj 272 88 tt-knbs;
#X obj 664 51 tt-btns;
#X obj 795 5 loadbang;
#X msg 703 103 -1;
#X msg 664 104 1;
#X obj 509 620 adc~;
#X obj 492 1109 *~ 1;
#X obj 642 1111 *~ 1;
#X obj 664 129 +;
#X obj 704 129 i;
#X floatatom 675 219 5 0 0 0 - - -, f 5;
#X obj 675 192 + 1;
#X obj 704 157 % 4;
#X msg 793 97 \; pd dsp 1 \;;
#X msg 795 35 bang;
#X obj 562 183 tt-dins;
#X obj 607 304 tt-LEDs;
#X text 949 397 o Real x Rational;
#X obj 395 308 s ttk3;
#X obj 396 193 s ttk6;
#X obj 739 185 < 0;
#X obj 739 210 select 1;
#X obj 603 1099 tgl 15 1 empty empty empty 17 7 0 10 -262144 -1 -1
1 1;
#X obj 53 540 spigot;
#X obj 89 517 tgl 15 0 empty empty empty 17 7 0 10 -262144 -1 -1 0
1;
#X msg 214 306 1;
#X msg 793 177 0;
#X obj 793 138 delay 1200;
#X msg 901 321 1;
#X obj 901 346 +;
#X obj 941 346 i;
#X obj 901 371 % 2;
#X floatatom 901 396 5 0 0 0 - - -, f 5;
#X floatatom 778 462 5 0 0 0 - - -, f 5;
#X obj 781 437 r teut;
#X obj 778 484 s BPM;
#X obj 878 34 t b b b b;
#N canvas 218 252 450 300 panner 0;
#X obj 19 35 inlet~ left;
#X obj 344 33 inlet~ right;
#X obj 17 249 outlet~ left;
#X obj 330 252 outlet~ right;
#X obj 167 37 r ttk6;
#X obj 167 62 expr $f1*0.5*3.14159;
#X floatatom 167 87 5 0 0 0 - - -, f 5;
#X obj 177 146 expr sin($f1);
#X obj 166 114 expr cos($f1);
#X obj 19 66 *~ 1;
#X obj 344 72 *~ 1;
#X floatatom 177 171 5 0 0 0 - - -, f 5;
#X obj 143 201 *~ 0;
#X obj 222 209 *~ 0;
#X connect 0 0 9 0;
#X connect 0 0 12 0;
#X connect 1 0 10 0;
#X connect 1 0 13 0;
#X connect 4 0 5 0;
#X connect 5 0 6 0;
#X connect 6 0 7 0;
#X connect 6 0 8 0;
#X connect 7 0 11 0;
#X connect 8 0 9 1;
#X connect 8 0 10 1;
#X connect 9 0 2 0;
#X connect 10 0 3 0;
#X connect 11 0 12 1;
#X connect 11 0 13 1;
#X connect 12 0 3 0;
#X connect 13 0 2 0;
#X restore 490 655 pd panner;
#X obj 515 244 4_tap;
#X floatatom 515 269 5 0 0 0 - - -, f 5;
#X obj 527 1150 tt-EKG;
#X msg 923 194 LD1 LD2 FdBk RD1 RD2 BPM;
#X obj 923 219 print OLED labels;
#X connect 0 0 37 0;
#X connect 0 1 7 5;
#X connect 0 2 8 5;
#X connect 0 3 9 5;
#X connect 0 4 10 5;
#X connect 3 0 51 0;
#X connect 4 0 3 0;
#X connect 7 0 1 0;
#X connect 7 0 20 0;
#X connect 8 0 1 0;
#X connect 8 0 20 0;
#X connect 9 0 1 1;
#X connect 9 0 21 0;
#X connect 10 0 1 1;
#X connect 10 0 21 0;
#X connect 11 0 13 0;
#X connect 12 1 2 0;
#X connect 13 0 12 0;
#X connect 14 0 0 1;
#X connect 14 1 0 2;
#X connect 14 2 7 2;
#X connect 14 2 8 2;
#X connect 14 2 9 2;
#X connect 14 2 10 2;
#X connect 14 2 32 0;
#X connect 14 3 0 3;
#X connect 14 4 0 4;
#X connect 14 5 33 0;
#X connect 15 0 18 0;
#X connect 15 1 17 0;
#X connect 15 2 30 2;
#X connect 15 2 52 0;
#X connect 16 0 28 0;
#X connect 16 0 50 0;
#X connect 17 0 22 0;
#X connect 18 0 22 0;
#X connect 19 0 51 0;
#X connect 19 1 51 1;
#X connect 20 0 54 0;
#X connect 21 0 54 1;
#X connect 22 0 23 0;
#X connect 23 0 22 1;
#X connect 23 0 26 0;
#X connect 24 0 0 5;
#X connect 25 0 24 0;
#X connect 26 0 25 0;
#X connect 26 0 34 0;
#X connect 27 0 41 0;
#X connect 28 0 39 0;
#X connect 29 0 30 0;
#X connect 29 0 52 0;
#X connect 29 1 30 1;
#X connect 29 1 0 8;
#X connect 29 3 42 0;
#X connect 34 0 35 0;
#X connect 35 0 40 0;
#X connect 36 0 54 2;
#X connect 37 0 4 2;
#X connect 38 0 37 1;
#X connect 39 0 0 0;
#X connect 40 0 23 0;
#X connect 40 0 22 1;
#X connect 41 0 40 0;
#X connect 42 0 43 0;
#X connect 43 0 44 0;
#X connect 43 0 45 0;
#X connect 44 0 43 1;
#X connect 45 0 46 0;
#X connect 46 0 0 6;
#X connect 47 0 49 0;
#X connect 48 0 47 0;
#X connect 50 0 17 0;
#X connect 50 1 42 0;
#X connect 50 2 55 0;
#X connect 50 3 27 0;
#X connect 51 0 7 0;
#X connect 51 0 8 0;
#X connect 51 1 9 0;
#X connect 51 1 10 0;
#X connect 52 0 53 0;
#X connect 53 0 0 7;
#X connect 55 0 56 0;
