#N canvas 96 119 1680 735 10;
#X obj 292 56 loadbang;
#X obj 292 83 delay 300;
#X msg 292 109 \; pd dsp 1 \;;
#X obj 436 271 s adc1;
#X obj 459 294 s adc2;
#X obj 486 314 s adc3;
#X obj 516 338 s adc4;
#X obj 195 275 tedium_input 4;
#X obj 56 275 tedium_input 23;
#X obj 198 315 tedium_input 17;
#X obj 203 339 tedium_input 14;
#X obj 208 369 tedium_input 27;
#X obj 58 315 tedium_input 25;
#X obj 58 355 tedium_input 24;
#X obj 199 536 tedium_output 12;
#X obj 89 576 tedium_output 16;
#X obj 160 424 f;
#X obj 224 422 + 1;
#X obj 155 467 % 2;
#X floatatom 148 504 5 0 0 0 - - -, f 5;
#X text 196 246 gate inputs 0-3;
#X text 57 251 tact sw 0-2;
#X text 119 560 top;
#X text 234 516 bottom;
#X text 275 587 switchLED;
#X obj 764 91 lop~ 100;
#X obj 765 130 cos~;
#X obj 775 164 clip~ -0.5 0.5;
#X obj 839 403 dac~;
#X obj 906 20 noise~;
#X obj 841 70 expr~ pow($v1 \, 4000);
#X obj 909 171 *~;
#X obj 908 243 *~;
#X obj 976 130 cnv 15 200 120 empty empty empty 20 12 0 14 -233017
-66577 0;
#X obj 993 177 hsl 128 15 0 1 0 0 empty empty empty -2 -8 0 10 -262144
-1 -1 0 1;
#X obj 992 139 hsl 128 15 50 250 0 0 empty empty empty -2 -8 0 10 -262144
-1 -1 5200 1;
#X obj 991 214 hsl 128 15 0 0.01 0 0 empty empty empty -2 -8 0 10 -262144
-1 -1 0 1;
#X text 985 229 HISS;
#X text 985 153 lo-pop;
#X text 987 193 crackle;
#X obj 1206 521 *~ 1;
#X obj 1298 342 vsl 15 128 0 5 0 0 empty empty empty 0 -9 0 10 -262144
-1 -1 0 1;
#X obj 1208 291 delwrite~ vibrato 50;
#X obj 1207 480 osc~ 2;
#X obj 1207 344 vsl 15 128 0 5 0 0 empty empty empty 0 -9 0 10 -262144
-1 -1 0 1;
#X floatatom 1341 529 5 0 0 0 - - -, f 5;
#X obj 1341 504 +;
#X obj 1298 478 * 2;
#X floatatom 1249 458 5 0 0 0 - - -, f 5;
#X text 1326 411 <-- Depth (change the length of the delay line);
#X text 1221 377 <-- Speed (frequency of the LFO);
#X obj 1207 543 +~ 2;
#X obj 1211 32 adc~;
#X text 1136 605 Pierre Massat \, GuitarExtended \, 2012;
#X obj 1127 114 r adc0;
#X obj 1128 152 r adc1;
#X obj 1131 189 r adc2;
#X obj 1207 313 r adc3;
#X obj 368 529 tedium_output 12;
#X obj 1296 313 r adc4;
#X obj 1245 156 tb_compressor~;
#X obj 1360 98 tb_compressorUI;
#X text 1418 68 STEP 3: Tweak and have fun!;
#X msg 434 71 10;
#X obj 407 245 s adc0;
#X obj 568 362 s adc5;
#X obj 465 247 expr $f1/4095;
#X obj 1207 565 throw~ warbler;
#X obj 916 322 catch~ warbler;
#X msg 1005 93 0;
#X obj 1091 56 loadbang;
#X msg 368 499 1;
#X msg 230 577 1;
#X obj 230 607 tedium_output 26;
#X obj 898 348 vd~ vibrato;
#X obj 439 224 expr 50+200*$f1/4095;
#X obj 491 270 expr 0.01*$f1/4095;
#X msg 389 149 open;
#X obj 419 196 terminal_tedium_adc;
#X text 682 465 adc 0-5;
#X obj 431 112 metro 10;
#X obj 512 293 expr 5*($f1/4095);
#X obj 540 314 expr 5.0*($f1/4095);
#X obj 569 336 expr -100*($f1/4095);
#X obj 1530 26 r adc5;
#X obj 1530 48 s Thresh;
#X obj 673 126 notein;
#X obj 673 148 mtof;
#X obj 673 170 phasor~;
#X connect 0 0 1 0;
#X connect 1 0 2 0;
#X connect 1 0 63 0;
#X connect 1 0 77 0;
#X connect 7 0 16 0;
#X connect 8 0 16 0;
#X connect 9 0 16 0;
#X connect 10 0 16 0;
#X connect 11 0 16 0;
#X connect 12 0 16 0;
#X connect 13 0 16 0;
#X connect 16 0 17 0;
#X connect 16 0 18 0;
#X connect 17 0 16 1;
#X connect 18 0 19 0;
#X connect 19 0 15 0;
#X connect 19 0 14 0;
#X connect 25 0 26 0;
#X connect 26 0 27 0;
#X connect 27 0 28 0;
#X connect 27 0 28 1;
#X connect 29 0 30 0;
#X connect 29 0 32 1;
#X connect 29 0 25 0;
#X connect 30 0 31 0;
#X connect 31 0 28 1;
#X connect 31 0 28 0;
#X connect 32 0 28 1;
#X connect 32 0 28 0;
#X connect 34 0 31 1;
#X connect 35 0 25 1;
#X connect 36 0 32 0;
#X connect 40 0 51 0;
#X connect 41 0 40 1;
#X connect 41 0 46 1;
#X connect 41 0 47 0;
#X connect 43 0 40 0;
#X connect 44 0 43 0;
#X connect 44 0 48 0;
#X connect 46 0 45 0;
#X connect 47 0 46 0;
#X connect 47 0 51 1;
#X connect 51 0 67 0;
#X connect 52 0 60 0;
#X connect 52 1 60 0;
#X connect 54 0 35 0;
#X connect 55 0 34 0;
#X connect 56 0 36 0;
#X connect 57 0 44 0;
#X connect 59 0 41 0;
#X connect 60 0 42 0;
#X connect 60 1 61 0;
#X connect 61 0 60 1;
#X connect 63 0 80 0;
#X connect 66 0 3 0;
#X connect 68 0 74 0;
#X connect 69 0 35 0;
#X connect 69 0 34 0;
#X connect 69 0 36 0;
#X connect 70 0 69 0;
#X connect 71 0 58 0;
#X connect 72 0 73 0;
#X connect 74 0 28 0;
#X connect 74 0 28 1;
#X connect 75 0 64 0;
#X connect 76 0 4 0;
#X connect 77 0 78 0;
#X connect 78 0 75 0;
#X connect 78 1 66 0;
#X connect 78 2 76 0;
#X connect 78 3 81 0;
#X connect 78 4 82 0;
#X connect 78 5 83 0;
#X connect 80 0 78 0;
#X connect 81 0 5 0;
#X connect 82 0 6 0;
#X connect 83 0 65 0;
#X connect 84 0 85 0;
#X connect 86 0 87 0;
#X connect 87 0 88 0;
#X connect 88 0 28 0;
