#N canvas 92 198 1262 735 10;
#X obj 556 332 loadbang;
#X obj 556 359 delay 300;
#X msg 556 385 \; pd dsp 1 \;;
#X obj 277 106 lop~ 100;
#X obj 278 145 cos~;
#X obj 288 179 clip~ -0.5 0.5;
#X obj 352 418 dac~;
#X obj 419 35 noise~;
#X obj 354 85 expr~ pow($v1 \, 4000);
#X obj 422 186 *~;
#X obj 421 258 *~;
#X obj 489 145 cnv 15 200 120 empty empty empty 20 12 0 14 -233017
-66577 0;
#X obj 506 192 hsl 128 15 0 1 0 0 empty empty empty -2 -8 0 10 -262144
-1 -1 0 1;
#X obj 505 154 hsl 128 15 50 250 0 0 empty empty empty -2 -8 0 10 -262144
-1 -1 0 1;
#X obj 504 229 hsl 128 15 0 0.01 0 0 empty empty empty -2 -8 0 10 -262144
-1 -1 0 1;
#X text 498 244 HISS;
#X text 498 168 lo-pop;
#X text 500 208 crackle;
#X obj 634 560 *~ 1;
#X obj 726 381 vsl 15 128 0 5 0 0 empty empty empty 0 -9 0 10 -262144
-1 -1 0 1;
#X obj 903 359 delwrite~ vibrato 50;
#X obj 941 129 vsl 15 128 0 5 0 0 empty empty empty 0 -9 0 10 -262144
-1 -1 0 1;
#X floatatom 769 568 5 0 0 0 - - -, f 5;
#X obj 769 543 +;
#X obj 726 517 * 2;
#X text 754 450 <-- Depth (change the length of the delay line);
#X text 620 430 <-- Speed (frequency of the LFO);
#X obj 635 582 +~ 2;
#X obj 903 289 adc~;
#X text 564 644 Pierre Massat \, GuitarExtended \, 2012;
#X obj 635 604 throw~ warbler;
#X obj 429 337 catch~ warbler;
#X msg 518 108 0;
#X obj 604 71 loadbang;
#X obj 411 363 vd~ vibrato;
#X obj 186 141 notein;
#X obj 186 163 mtof;
#X obj 186 185 phasor~;
#N canvas 812 80 888 712 tt-param 0;
#X obj 534 78 loadbang;
#X obj 535 109 delay 300;
#X obj 536 175 metro 2;
#X msg 535 147 1;
#X msg 493 174 open;
#X obj 537 217 terminal_tedium_adc;
#X obj 239 76 tedium_input 4;
#X obj 48 70 tedium_input 23;
#X obj 238 127 tedium_input 17;
#X obj 234 182 tedium_input 14;
#X obj 234 236 tedium_input 27;
#X obj 48 116 tedium_input 25;
#X obj 47 174 tedium_input 24;
#X obj 64 507 tedium_output 12;
#X obj 60 445 tedium_output 16;
#X text 218 40 gate inputs 0-3;
#X text 50 46 tact sw 0-2;
#X text 579 195 adc 0-5;
#X text 90 429 top;
#X text 99 490 bottom;
#X text 138 354 switchLED;
#X obj 61 382 tedium_output 26;
#X obj 239 101 s ttD1;
#X obj 239 156 s ttD2;
#X obj 234 207 s ttD3;
#X obj 235 260 s ttD4;
#X obj 48 93 s ttUP;
#X obj 48 143 s ttDOWN;
#X obj 47 200 s ttLIGHTSW;
#X obj 60 410 r ttTopLED;
#X obj 61 351 r ttSWLED;
#X obj 539 396 / 4095;
#X obj 616 393 / 4095;
#X obj 640 442 / 4095;
#X obj 668 489 / 4095;
#X obj 564 454 / 4095;
#X obj 590 506 / 4095;
#X obj 539 422 s knob1;
#X obj 564 480 s knob2;
#X obj 590 533 s knob3;
#X obj 616 418 s knob4;
#N canvas 0 50 450 300 removenoise 0;
#X obj 99 26 inlet;
#X obj 288 94 f;
#X obj 99 173 i;
#X obj 99 199 change;
#X text 315 125 smooth and remove noise;
#X obj 99 228 outlet;
#X obj 99 53 t f b;
#X obj 99 123 expr ($f1*(($f2*-1)+1))+($f3*$f2);
#X obj 60 96 sel 0;
#X obj 60 144 0;
#X msg 202 88 0.3;
#X connect 0 0 6 0;
#X connect 1 0 7 2;
#X connect 2 0 3 0;
#X connect 3 0 5 0;
#X connect 6 0 8 0;
#X connect 6 1 10 0;
#X connect 7 0 1 0;
#X connect 7 0 2 0;
#X connect 8 0 9 0;
#X connect 8 1 7 0;
#X connect 9 0 1 0;
#X connect 9 0 10 0;
#X connect 9 0 7 0;
#X connect 10 0 7 1;
#X restore 537 248 pd removenoise;
#N canvas 0 50 450 300 removenoise 0;
#X obj 99 26 inlet;
#X obj 288 94 f;
#X obj 99 173 i;
#X obj 99 199 change;
#X text 315 125 smooth and remove noise;
#X obj 99 228 outlet;
#X obj 99 53 t f b;
#X obj 99 123 expr ($f1*(($f2*-1)+1))+($f3*$f2);
#X obj 60 96 sel 0;
#X obj 60 144 0;
#X msg 202 88 0.3;
#X connect 0 0 6 0;
#X connect 1 0 7 2;
#X connect 2 0 3 0;
#X connect 3 0 5 0;
#X connect 6 0 8 0;
#X connect 6 1 10 0;
#X connect 7 0 1 0;
#X connect 7 0 2 0;
#X connect 8 0 9 0;
#X connect 8 1 7 0;
#X connect 9 0 1 0;
#X connect 9 0 10 0;
#X connect 9 0 7 0;
#X connect 10 0 7 1;
#X restore 563 275 pd removenoise;
#N canvas 0 50 450 300 removenoise 0;
#X obj 99 26 inlet;
#X obj 288 94 f;
#X obj 99 173 i;
#X obj 99 199 change;
#X text 315 125 smooth and remove noise;
#X obj 99 228 outlet;
#X obj 99 53 t f b;
#X obj 99 123 expr ($f1*(($f2*-1)+1))+($f3*$f2);
#X obj 60 96 sel 0;
#X obj 60 144 0;
#X msg 202 88 0.3;
#X connect 0 0 6 0;
#X connect 1 0 7 2;
#X connect 2 0 3 0;
#X connect 3 0 5 0;
#X connect 6 0 8 0;
#X connect 6 1 10 0;
#X connect 7 0 1 0;
#X connect 7 0 2 0;
#X connect 8 0 9 0;
#X connect 8 1 7 0;
#X connect 9 0 1 0;
#X connect 9 0 10 0;
#X connect 9 0 7 0;
#X connect 10 0 7 1;
#X restore 589 297 pd removenoise;
#N canvas 0 50 450 300 removenoise 0;
#X obj 99 26 inlet;
#X obj 288 94 f;
#X obj 99 173 i;
#X obj 99 199 change;
#X text 315 125 smooth and remove noise;
#X obj 99 228 outlet;
#X obj 99 53 t f b;
#X obj 99 123 expr ($f1*(($f2*-1)+1))+($f3*$f2);
#X obj 60 96 sel 0;
#X obj 60 144 0;
#X msg 202 88 0.3;
#X connect 0 0 6 0;
#X connect 1 0 7 2;
#X connect 2 0 3 0;
#X connect 3 0 5 0;
#X connect 6 0 8 0;
#X connect 6 1 10 0;
#X connect 7 0 1 0;
#X connect 7 0 2 0;
#X connect 8 0 9 0;
#X connect 8 1 7 0;
#X connect 9 0 1 0;
#X connect 9 0 10 0;
#X connect 9 0 7 0;
#X connect 10 0 7 1;
#X restore 616 321 pd removenoise;
#N canvas 0 50 450 300 removenoise 0;
#X obj 99 26 inlet;
#X obj 288 94 f;
#X obj 99 173 i;
#X obj 99 199 change;
#X text 315 125 smooth and remove noise;
#X obj 99 228 outlet;
#X obj 99 53 t f b;
#X obj 99 123 expr ($f1*(($f2*-1)+1))+($f3*$f2);
#X obj 60 96 sel 0;
#X obj 60 144 0;
#X msg 202 88 0.3;
#X connect 0 0 6 0;
#X connect 1 0 7 2;
#X connect 2 0 3 0;
#X connect 3 0 5 0;
#X connect 6 0 8 0;
#X connect 6 1 10 0;
#X connect 7 0 1 0;
#X connect 7 0 2 0;
#X connect 8 0 9 0;
#X connect 8 1 7 0;
#X connect 9 0 1 0;
#X connect 9 0 10 0;
#X connect 9 0 7 0;
#X connect 10 0 7 1;
#X restore 639 345 pd removenoise;
#N canvas 0 50 450 300 removenoise 0;
#X obj 99 26 inlet;
#X obj 288 94 f;
#X obj 99 173 i;
#X obj 99 199 change;
#X text 315 125 smooth and remove noise;
#X obj 99 228 outlet;
#X obj 99 53 t f b;
#X obj 99 123 expr ($f1*(($f2*-1)+1))+($f3*$f2);
#X obj 60 96 sel 0;
#X obj 60 144 0;
#X msg 202 88 0.3;
#X connect 0 0 6 0;
#X connect 1 0 7 2;
#X connect 2 0 3 0;
#X connect 3 0 5 0;
#X connect 6 0 8 0;
#X connect 6 1 10 0;
#X connect 7 0 1 0;
#X connect 7 0 2 0;
#X connect 8 0 9 0;
#X connect 8 1 7 0;
#X connect 9 0 1 0;
#X connect 9 0 10 0;
#X connect 9 0 7 0;
#X connect 10 0 7 1;
#X restore 668 370 pd removenoise;
#X obj 63 472 r ttBotLED;
#X obj 640 467 s knob5;
#X obj 666 514 s knob6;
#X connect 0 0 1 0;
#X connect 1 0 4 0;
#X connect 1 0 3 0;
#X connect 2 0 5 0;
#X connect 3 0 2 0;
#X connect 4 0 5 0;
#X connect 5 0 41 0;
#X connect 5 1 42 0;
#X connect 5 2 43 0;
#X connect 5 3 44 0;
#X connect 5 4 45 0;
#X connect 5 5 46 0;
#X connect 6 0 22 0;
#X connect 7 0 26 0;
#X connect 8 0 23 0;
#X connect 9 0 24 0;
#X connect 10 0 25 0;
#X connect 11 0 27 0;
#X connect 12 0 28 0;
#X connect 29 0 14 0;
#X connect 30 0 21 0;
#X connect 31 0 37 0;
#X connect 32 0 40 0;
#X connect 33 0 48 0;
#X connect 34 0 49 0;
#X connect 35 0 38 0;
#X connect 36 0 39 0;
#X connect 41 0 31 0;
#X connect 42 0 35 0;
#X connect 43 0 36 0;
#X connect 44 0 32 0;
#X connect 45 0 33 0;
#X connect 46 0 34 0;
#X connect 47 0 13 0;
#X restore 69 40 pd tt-param;
#X obj 648 101 r knob1;
#X obj 641 167 r knob2;
#X obj 706 166 r knob3;
#X obj 726 329 r knob4;
#X msg 578 429 33;
#X obj 578 451 / 60;
#X obj 942 64 r knob5;
#X obj 982 159 vsl 15 128 0 5 0 0 empty empty empty 0 -9 0 10 -262144
-1 -1 0 1;
#X obj 993 108 r knob6;
#X obj 904 331 bp~, f 8;
#X obj 635 519 osc~ 0.55;
#X obj 648 123 expr 50+200*$f1;
#X obj 726 351 expr 5.0*$f1;
#X obj 706 196 expr 0.05*$f1;
#X obj 993 130 expr 10*$f1;
#X obj 943 85 expr 6000*$f1;
#X connect 0 0 1 0;
#X connect 1 0 2 0;
#X connect 2 0 43 0;
#X connect 3 0 4 0;
#X connect 4 0 5 0;
#X connect 5 0 6 0;
#X connect 5 0 6 1;
#X connect 7 0 8 0;
#X connect 7 0 10 1;
#X connect 7 0 3 0;
#X connect 8 0 9 0;
#X connect 9 0 6 1;
#X connect 9 0 6 0;
#X connect 10 0 6 1;
#X connect 10 0 6 0;
#X connect 12 0 9 1;
#X connect 13 0 3 1;
#X connect 14 0 10 0;
#X connect 18 0 27 0;
#X connect 19 0 18 1;
#X connect 19 0 23 1;
#X connect 19 0 24 0;
#X connect 21 0 48 1;
#X connect 23 0 22 0;
#X connect 24 0 23 0;
#X connect 24 0 27 1;
#X connect 27 0 30 0;
#X connect 28 0 48 0;
#X connect 28 1 48 0;
#X connect 31 0 34 0;
#X connect 32 0 13 0;
#X connect 32 0 12 0;
#X connect 32 0 14 0;
#X connect 33 0 32 0;
#X connect 34 0 6 0;
#X connect 34 0 6 1;
#X connect 35 0 36 0;
#X connect 36 0 37 0;
#X connect 37 0 6 0;
#X connect 39 0 50 0;
#X connect 40 0 12 0;
#X connect 41 0 52 0;
#X connect 42 0 51 0;
#X connect 43 0 44 0;
#X connect 44 0 49 0;
#X connect 45 0 54 0;
#X connect 46 0 48 2;
#X connect 47 0 53 0;
#X connect 48 0 20 0;
#X connect 49 0 18 0;
#X connect 50 0 13 0;
#X connect 51 0 19 0;
#X connect 52 0 14 0;
#X connect 53 0 46 0;
#X connect 54 0 21 0;
